<svg width="24" height="24" viewBox="0 0 24 24" fill="none" xmlns="http://www.w3.org/2000/svg">
<path d="M3.55273 13.7163V9.86312C3.55273 8.60604 3.55273 7.9775 3.94326 7.58697C4.33378 7.19645 4.96232 7.19645 6.2194 7.19645H8.14882M3.55273 13.7163V17.5695C3.55273 18.8266 3.55273 19.4551 3.94326 19.8456C4.33378 20.2362 4.96232 20.2362 6.2194 20.2362H17.7808C19.0379 20.2362 19.6665 20.2362 20.057 19.8456C20.4475 19.4551 20.4475 18.8266 20.4475 17.5695V13.7163M3.55273 13.7163C10.2133 16.2804 13.9143 16.349 20.4475 13.7163M20.4475 13.7163V9.86312C20.4475 8.60604 20.4475 7.9775 20.057 7.58697C19.6665 7.19645 19.0379 7.19645 17.7808 7.19645H15.8458M8.14882 7.19645V6.43047C8.14882 5.17341 8.14882 4.54488 8.53934 4.15436C8.92986 3.76383 9.55839 3.76382 10.8154 3.7638L13.1791 3.76376C14.4362 3.76374 15.0647 3.76373 15.4552 4.15425C15.8458 4.54478 15.8458 5.17333 15.8458 6.43043V7.19645M8.14882 7.19645H15.8458" stroke="#949494" stroke-width="1.06667" stroke-linecap="round" stroke-linejoin="round"/>
<ellipse cx="11.9999" cy="13.0919" rx="0.32" ry="0.333333" stroke="#949494" stroke-width="1.06667"/>
</svg>
