<svg width="24" height="24" viewBox="0 0 24 24" fill="none" xmlns="http://www.w3.org/2000/svg">
<path d="M19.4979 11.6284C19.2843 11.844 19.1775 11.9518 19.0666 12.0174C18.755 12.2018 18.3681 12.2036 18.0548 12.0222C17.9433 11.9576 17.8355 11.8508 17.6199 11.6372L15.1041 9.14481C14.8885 8.93122 14.7807 8.82442 14.7151 8.71351C14.5308 8.40187 14.529 8.01502 14.7104 7.70168C14.775 7.59016 14.8818 7.48236 15.0953 7.26677V7.26677C15.3089 7.05118 15.4157 6.94338 15.5266 6.87777C15.8383 6.69344 16.2251 6.69163 16.5385 6.87305C16.65 6.93762 16.7578 7.04442 16.9734 7.25801L19.4891 9.75041C19.7047 9.964 19.8125 10.0708 19.8781 10.1817C20.0625 10.4933 20.0643 10.8802 19.8829 11.1935C19.8183 11.3051 19.7115 11.4129 19.4979 11.6284V11.6284Z" stroke="#949494" stroke-width="1.06667" stroke-linecap="round" stroke-linejoin="round"/>
<path d="M14.7898 8.83335L10.7257 9.66592C10.4213 9.72827 10.2691 9.75945 10.1642 9.8613C10.0592 9.96315 10.0235 10.1143 9.95196 10.4167L7.95044 18.8817L16.3964 16.8012C16.6981 16.7269 16.8489 16.6898 16.9498 16.5839C17.0506 16.478 17.0804 16.3255 17.1399 16.0205L17.9345 11.9488L14.7898 8.83335Z" stroke="#949494" stroke-width="1.06667" stroke-linecap="round" stroke-linejoin="round"/>
<path d="M7.95044 18.8817L12.6772 14.1106" stroke="#949494" stroke-width="1.06667" stroke-linecap="round" stroke-linejoin="round"/>
<path d="M14.8102 13.2156C14.807 12.5241 14.2438 11.9662 13.5524 11.9694C12.8609 11.9727 12.3029 12.5358 12.3062 13.2273C12.3094 13.9188 12.8726 14.4767 13.564 14.4735C14.2555 14.4703 14.8134 13.9071 14.8102 13.2156Z" stroke="#949494" stroke-width="1.06667" stroke-linecap="round" stroke-linejoin="round"/>
<path d="M5.05908 6.37291C6.39242 6.13184 7.33677 5.05769 7.59087 3.75977C7.86181 5.06299 8.85357 6.09187 10.1074 6.37291C8.91722 6.65935 7.9445 7.62663 7.59087 8.84593C7.29346 7.60579 6.382 6.63184 5.05908 6.37291Z" stroke="#949494" stroke-width="1.06667" stroke-linecap="round" stroke-linejoin="round"/>
</svg>
