<svg width="24" height="24" viewBox="0 0 24 24" fill="none" xmlns="http://www.w3.org/2000/svg">
<path d="M13.6532 20.6666H12.0002H7.60016C6.10669 20.6666 5.35995 20.6666 4.78952 20.3759C4.28776 20.1203 3.87981 19.7123 3.62415 19.2106C3.3335 18.6401 3.3335 17.8934 3.3335 16.3999V7.59992C3.3335 6.10644 3.3335 5.35971 3.62415 4.78928C3.87981 4.28751 4.28776 3.87956 4.78952 3.6239C5.35995 3.33325 6.10669 3.33325 7.60016 3.33325H14.4437C15.9372 3.33325 16.6839 3.33325 17.2544 3.6239C17.7561 3.87956 18.1641 4.28751 18.4198 4.78928C18.7104 5.35971 18.7104 6.10645 18.7104 7.59992V10.6666" stroke="#949494" stroke-width="1.06667" stroke-linecap="round"/>
<path d="M6.84473 7.28638H15.2201" stroke="#949494" stroke-width="1.06667" stroke-linecap="round"/>
<path d="M6.82397 10.2979H15.1994" stroke="#949494" stroke-width="1.06667" stroke-linecap="round"/>
<path d="M6.82373 13.3333H10.1669" stroke="#949494" stroke-width="1.06667" stroke-linecap="round"/>
<path d="M13.4385 16.3232C15.267 15.9926 16.5621 14.5195 16.9106 12.7395C17.2822 14.5268 18.6423 15.9378 20.3619 16.3232C18.7296 16.716 17.3956 18.0426 16.9106 19.7148C16.5027 18.014 15.2527 16.6783 13.4385 16.3232Z" stroke="#949494" stroke-width="1.06667" stroke-linecap="round" stroke-linejoin="round"/>
</svg>
