<?xml version="1.0" encoding="utf-8"?><!-- Uploaded to: SVG Repo, www.svgrepo.com, Generator: SVG Repo Mixer Tools -->
<svg width="800px" height="800px" viewBox="0 0 192 192" xmlns="http://www.w3.org/2000/svg" fill="none"><path stroke="#000000" stroke-linecap="round" stroke-linejoin="round" stroke-width="12" d="M96 30H80.87a12 12 0 0 0-10.348 5.926l-46.917 79.932a12.001 12.001 0 0 0 .059 12.249l16.84 28.067A12 12 0 0 0 50.794 162H96m0-132h15.129a12 12 0 0 1 10.349 5.926l46.917 79.932a12.001 12.001 0 0 1-.059 12.249l-16.84 28.067a12.002 12.002 0 0 1-10.29 5.826H96"/><path stroke="#000000" stroke-linecap="round" stroke-linejoin="round" stroke-width="12" d="m59 127 37-62 37 62H59Z"/></svg>