<svg width="24" height="24" viewBox="0 0 24 24" fill="none" xmlns="http://www.w3.org/2000/svg">
<path fill-rule="evenodd" clip-rule="evenodd" d="M12.3959 9.23603H9.56955C8.00844 9.23603 6.74316 7.97075 6.74316 6.40964V6.40964C6.74316 4.84853 8.00844 3.58325 9.56955 3.58325H12.3959V9.23603Z" stroke="#949494" stroke-width="1.06667" stroke-linecap="round" stroke-linejoin="round"/>
<path fill-rule="evenodd" clip-rule="evenodd" d="M12.3959 9.23584H9.56955C8.00844 9.23584 6.74316 10.5011 6.74316 12.0622V12.0622C6.74316 13.6233 8.00844 14.8886 9.56955 14.8886H12.3959V9.23584Z" stroke="#949494" stroke-width="1.06667" stroke-linecap="round" stroke-linejoin="round"/>
<path fill-rule="evenodd" clip-rule="evenodd" d="M12.3959 14.8889H9.56955C8.00844 14.8889 6.74316 16.1542 6.74316 17.7153V17.7153C6.74316 19.2764 8.00844 20.5417 9.56955 20.5417V20.5417C11.1307 20.5417 12.3959 19.2764 12.3959 17.7153V14.8889Z" stroke="#949494" stroke-width="1.06667" stroke-linecap="round" stroke-linejoin="round"/>
<path d="M17.2209 10.0637C18.3247 11.1674 18.3247 12.957 17.2209 14.0608C16.1172 15.1646 14.3276 15.1646 13.2238 14.0608C12.1201 12.957 12.1201 11.1674 13.2238 10.0637C14.3276 8.9599 16.1172 8.9599 17.2209 10.0637" stroke="#949494" stroke-width="1.06667" stroke-linecap="round" stroke-linejoin="round"/>
<path fill-rule="evenodd" clip-rule="evenodd" d="M15.2224 9.23603H12.396V3.58325H15.2224C16.7835 3.58325 18.0488 4.84853 18.0488 6.40964V6.40964C18.0488 7.97075 16.7835 9.23603 15.2224 9.23603Z" stroke="#949494" stroke-width="1.06667" stroke-linecap="round" stroke-linejoin="round"/>
</svg>
