<svg width="28" height="28" viewBox="0 0 28 28" fill="none" xmlns="http://www.w3.org/2000/svg">
<path d="M11.3783 23.5094C11.3783 23.1991 11.3613 22.1685 11.3613 21.0711C8.07184 21.6774 7.22068 20.2697 6.95878 19.5325C6.81081 19.1554 6.17309 17.9938 5.61655 17.6822C5.15823 17.4373 4.50349 16.831 5.59953 16.8153C6.63141 16.7983 7.36734 17.7647 7.61352 18.1575C8.79206 20.1375 10.6738 19.5809 11.4268 19.2379C11.542 18.3867 11.8851 17.8144 12.2622 17.4871C9.34859 17.1597 6.30404 16.0296 6.30404 11.0208C6.30404 9.59611 6.81081 8.41888 7.64626 7.50094C7.51531 7.17356 7.05699 5.83134 7.77721 4.0308C7.77721 4.0308 8.87325 3.68771 11.3783 5.37433C12.4443 5.07847 13.5457 4.92955 14.652 4.93172C15.7651 4.93172 16.8781 5.07839 17.9257 5.37302C20.4308 3.67069 21.5268 4.03211 21.5268 4.03211C22.247 5.83265 21.7887 7.17487 21.6578 7.50225C22.4919 8.41889 23 9.5804 23 11.0208C23 16.0466 19.9397 17.1597 17.0248 17.4871C17.5002 17.8956 17.91 18.6813 17.91 19.9096C17.91 21.6604 17.893 23.0681 17.893 23.5107" stroke="#949494" stroke-width="1.3469"/>
</svg>
