<svg width="24" height="24" viewBox="0 0 24 24" fill="none" xmlns="http://www.w3.org/2000/svg">
<g clip-path="url(#clip0_32_292)">
<path d="M14.4861 3.14302C14.7413 3.21481 14.9576 3.38502 15.0874 3.61624C15.2172 3.84746 15.2498 4.12075 15.1781 4.37602L10.7481 20.164C10.7127 20.2905 10.6526 20.4087 10.5715 20.512C10.4903 20.6153 10.3896 20.7015 10.2751 20.7659C10.1606 20.8302 10.0346 20.8714 9.90419 20.887C9.77378 20.9027 9.64157 20.8925 9.51511 20.857C9.38865 20.8216 9.27041 20.7615 9.16714 20.6804C9.06387 20.5992 8.9776 20.4985 8.91325 20.384C8.8489 20.2695 8.80773 20.1435 8.79209 20.0131C8.77645 19.8827 8.78665 19.7505 8.82211 19.624L13.2521 3.83602C13.2875 3.70944 13.3476 3.59108 13.4288 3.48773C13.51 3.38437 13.6108 3.29804 13.7254 3.23368C13.84 3.16931 13.9662 3.12817 14.0967 3.11262C14.2273 3.09706 14.3596 3.10739 14.4861 3.14302ZM7.20711 7.05002C7.39458 7.23755 7.4999 7.49185 7.4999 7.75702C7.4999 8.02218 7.39458 8.27649 7.20711 8.46402L3.67211 12L7.20711 15.535C7.30002 15.6279 7.37373 15.7381 7.42404 15.8594C7.47435 15.9808 7.50027 16.1108 7.50031 16.2422C7.50036 16.3735 7.47453 16.5036 7.42431 16.625C7.37409 16.7463 7.30046 16.8566 7.20761 16.9495C7.11477 17.0424 7.00453 17.1161 6.8832 17.1664C6.76187 17.2168 6.63181 17.2427 6.50046 17.2427C6.36912 17.2428 6.23904 17.2169 6.11768 17.1667C5.99631 17.1165 5.88602 17.0429 5.79311 16.95L1.55011 12.707C1.36264 12.5195 1.25732 12.2652 1.25732 12C1.25732 11.7349 1.36264 11.4805 1.55011 11.293L5.79311 7.05002C5.98064 6.86255 6.23495 6.75723 6.50011 6.75723C6.76527 6.75723 7.01958 6.86255 7.20711 7.05002ZM16.7931 8.46402C16.6976 8.37177 16.6214 8.26143 16.569 8.13942C16.5166 8.01742 16.489 7.8862 16.4879 7.75342C16.4867 7.62064 16.512 7.48896 16.5623 7.36606C16.6126 7.24317 16.6868 7.13151 16.7807 7.03762C16.8746 6.94373 16.9863 6.86948 17.1092 6.8192C17.2321 6.76891 17.3637 6.74361 17.4965 6.74477C17.6293 6.74592 17.7605 6.77351 17.8825 6.82592C18.0045 6.87832 18.1149 6.95451 18.2071 7.05002L22.4501 11.293C22.6376 11.4805 22.7429 11.7349 22.7429 12C22.7429 12.2652 22.6376 12.5195 22.4501 12.707L18.2071 16.949C18.0185 17.1312 17.7659 17.232 17.5037 17.2297C17.2415 17.2274 16.9907 17.1222 16.8053 16.9368C16.6199 16.7514 16.5147 16.5006 16.5124 16.2384C16.5102 15.9762 16.611 15.7236 16.7931 15.535L20.3281 12L16.7931 8.46402Z" fill="#BDBDBD"/>
</g>
<defs>
<clipPath id="clip0_32_292">
<rect width="24" height="24" fill="white"/>
</clipPath>
</defs>
</svg>
