<svg width="24" height="24" viewBox="0 0 24 24" fill="none" xmlns="http://www.w3.org/2000/svg">
<path d="M19.5618 7C19.6155 6.69354 19.6014 6.37903 19.5207 6.07857C19.4399 5.7781 19.2944 5.49895 19.0942 5.26071C18.8941 5.02248 18.6443 4.83093 18.3623 4.69951C18.0803 4.5681 17.7729 4.5 17.4618 4.5H6.53776C6.22663 4.5 5.91927 4.5681 5.63725 4.69951C5.35523 4.83093 5.1054 5.02248 4.90528 5.26071C4.70516 5.49895 4.55961 5.7781 4.47885 6.07857C4.39808 6.37903 4.38406 6.69354 4.43776 7M17.4998 4.5C17.5278 4.24 17.5428 4.111 17.5428 4.004C17.5438 3.50969 17.3618 3.0325 17.0318 2.66446C16.7019 2.29643 16.2473 2.06364 15.7558 2.011C15.6498 2 15.5198 2 15.2598 2H8.73976C8.47976 2 8.34876 2 8.24276 2.011C7.75126 2.06364 7.29667 2.29643 6.96668 2.66446C6.63669 3.0325 6.45468 3.50969 6.45576 4.004C6.45576 4.111 6.46976 4.241 6.49876 4.5" stroke="#BDBDBD" stroke-width="1.5"/>
<path d="M15 18H9" stroke="#BDBDBD" stroke-width="1.5" stroke-linecap="round"/>
<path d="M2.38384 13.793C1.93684 10.629 1.71384 9.048 2.66184 8.023C3.60984 7 5.29784 7 8.67184 7H15.3278C18.7018 7 20.3898 7 21.3378 8.024C22.2848 9.048 22.0618 10.629 21.6158 13.793L21.1938 16.793C20.8438 19.273 20.6688 20.514 19.7718 21.257C18.8748 22 17.5518 22 14.9048 22H9.09484C6.44884 22 5.12484 22 4.22784 21.257C3.33084 20.514 3.15584 19.274 2.80584 16.793L2.38384 13.793Z" stroke="#BDBDBD" stroke-width="1.5"/>
</svg>
