<svg width="24" height="24" viewBox="0 0 24 24" fill="none" xmlns="http://www.w3.org/2000/svg">
<path d="M4.26147 18.2294V7.25445C4.26147 7.22071 4.28883 7.19336 4.32257 7.19336H7.6044C7.63814 7.19336 7.6655 7.22071 7.6655 7.25445V18.2294C7.6655 18.2631 7.63814 18.2905 7.6044 18.2905H4.32257C4.28883 18.2905 4.26147 18.2631 4.26147 18.2294Z" stroke="#949494" stroke-linecap="round" stroke-linejoin="round"/>
<path d="M9.67065 7.258V18.0896C9.67065 18.1234 9.69801 18.1507 9.73175 18.1507H13.2322C13.266 18.1507 13.2933 18.1234 13.2933 18.0896V11.77C13.2933 10.6425 14.1866 9.87437 15.2665 9.90523C16.3465 9.93608 17.1532 10.9382 17.1532 11.77V18.0896C17.1532 18.1234 17.1805 18.1507 17.2143 18.1507H20.3332C20.3664 18.1507 20.3936 18.1241 20.3942 18.0909L20.5391 10.9382C20.5391 6.56015 14.5531 5.69701 13.2522 8.47226C13.2213 8.53818 13.0765 8.51605 13.0765 8.44325V7.258C13.0765 7.22426 13.0492 7.1969 13.0154 7.1969H9.73175C9.69801 7.1969 9.67065 7.22426 9.67065 7.258Z" stroke="#949494" stroke-linecap="round" stroke-linejoin="round"/>
<circle cx="5.83277" cy="3.83277" r="1.83277" stroke="#949494"/>
</svg>
