<svg width="25" height="24" viewBox="0 0 25 24" fill="none" xmlns="http://www.w3.org/2000/svg">
<path d="M13.7423 3.94857H6.72493H6.6708C6.51349 3.94857 6.43484 3.94857 6.36838 3.95189C5.00021 4.02021 3.90636 5.11406 3.83804 6.48223C3.83472 6.54869 3.83472 6.62735 3.83472 6.78466V6.78466V15.2929V15.2929C3.83472 15.4502 3.83472 15.5289 3.83804 15.5953C3.90636 16.9635 5.00021 18.0574 6.36838 18.1257C6.43484 18.129 6.51349 18.129 6.6708 18.129H6.72493H9.61515C9.61515 18.6965 9.886 20.9165 9.886 20.9165C9.886 20.9165 13.2732 18.6497 13.9505 18.129H18.2858H18.3399C18.4972 18.129 18.5759 18.129 18.6424 18.1257C20.0105 18.0574 21.1044 16.9635 21.1727 15.5953C21.176 15.5289 21.176 15.4502 21.176 15.2929V15.2929V10.0047" stroke="#949494" stroke-width="1.06667" stroke-linecap="round" stroke-linejoin="round"/>
<path d="M17.1437 14.8757H7.8562" stroke="#949494" stroke-width="1.06667" stroke-linecap="round" stroke-linejoin="round"/>
<path d="M17.1437 12H7.8562" stroke="#949494" stroke-width="1.06667" stroke-linecap="round" stroke-linejoin="round"/>
<path d="M13.6417 9.12435H7.8562" stroke="#949494" stroke-width="1.06667" stroke-linecap="round" stroke-linejoin="round"/>
<path d="M16.1575 5.89775C17.4908 5.65667 18.4352 4.58252 18.6893 3.2846C18.9602 4.58782 19.952 5.6167 21.2058 5.89775C20.0156 6.18418 19.0429 7.15146 18.6893 8.37076C18.3918 7.13063 17.4804 6.15667 16.1575 5.89775Z" stroke="#949494" stroke-width="1.06667" stroke-linecap="round" stroke-linejoin="round"/>
</svg>
