<svg width="24" height="24" viewBox="0 0 24 24" fill="none" xmlns="http://www.w3.org/2000/svg">
<path d="M22.7982 11.4057L20.1863 10.5639C18.5157 10.0126 17.5369 8.66074 17.0776 6.96199L15.9282 1.36324C15.8982 1.25262 15.8251 1.10449 15.6001 1.10449C15.4107 1.10449 15.3019 1.25262 15.2719 1.36324L14.1226 6.96387C13.6613 8.66262 12.6844 10.0145 11.0138 10.5657L8.40193 11.4076C8.03255 11.5276 8.02693 12.0489 8.39443 12.1745L11.0251 13.0801C12.6901 13.6332 13.6613 14.9832 14.1226 16.6745L15.2738 22.2114C15.3038 22.322 15.3657 22.5207 15.6019 22.5207C15.8513 22.5207 15.9001 22.322 15.9301 22.2114L17.0813 16.6745C17.5426 14.9814 18.5138 13.6314 20.1788 13.0801L22.8094 12.1745C23.1732 12.047 23.1676 11.5257 22.7982 11.4057Z" fill="#FDD835"/>
<path d="M23.0457 11.64C23.0045 11.5369 22.9239 11.4469 22.7982 11.4057L20.1864 10.5638C18.5157 10.0125 17.537 8.66066 17.0776 6.96191L15.9282 1.36316C15.9114 1.29941 15.8514 1.18316 15.782 1.14941L16.1532 6.76879C16.4289 9.33379 16.6651 10.5413 18.7126 10.8938C20.4714 11.1975 22.5057 11.5463 23.0457 11.64Z" fill="#FFEE58"/>
<path d="M23.0512 11.9326L18.5212 12.9714C16.9256 13.3764 16.0462 14.3007 16.0462 16.7195L15.6018 22.5207C15.7537 22.5057 15.8774 22.4232 15.9299 22.2114L17.0812 16.6745C17.5424 14.9814 18.5137 13.6314 20.1787 13.0801L22.8093 12.1745C22.9331 12.1295 23.0118 12.0376 23.0512 11.9326Z" fill="#F4B400"/>
<path d="M7.83927 16.2768C6.2774 15.7612 6.1349 15.1799 5.8724 14.1993L5.21802 11.9043C5.17865 11.7562 4.7924 11.7562 4.75115 11.9043L4.30677 14.0249C4.0424 15.0018 3.4799 15.7781 2.5199 16.0949L0.989895 16.7587C0.77802 16.8281 0.77427 17.1281 0.986145 17.1993L2.5274 17.7449C3.48365 18.0618 4.0424 18.8381 4.30865 19.8112L4.75302 21.8399C4.79427 21.9881 5.17865 21.9881 5.21802 21.8399L5.73927 19.8206C6.00365 18.8418 6.40865 18.0637 7.70802 17.7449L9.15552 17.1993C9.3674 17.1262 9.36552 16.8262 9.15177 16.7568L7.83927 16.2768Z" fill="#FDD835"/>
<path d="M5.34187 14.1657C5.50124 15.6394 5.58187 16.0482 6.77624 16.3538L9.26437 16.8394C9.23812 16.8038 9.20061 16.7738 9.14999 16.7588L7.83749 16.2769C6.46686 15.8082 6.08812 15.2119 5.83124 14.0194C5.57437 12.8269 5.30062 12.0488 5.30062 12.0488C5.20499 11.7919 5.06812 11.805 5.06812 11.805L5.34187 14.1657Z" fill="#FFEE58"/>
<path d="M5.38683 19.3106C5.38683 17.9212 6.1462 17.2331 7.3537 17.2331L9.23245 17.1562C9.23245 17.1562 9.1237 17.3006 8.93433 17.3456L7.70808 17.745C6.66745 18.1631 6.19308 18.3731 5.87058 19.7963C5.87058 19.7963 5.45433 21.4519 5.37558 21.6262C5.26683 21.87 5.13745 21.9206 5.13745 21.9206L5.38683 19.3106Z" fill="#F4B400"/>
<path d="M11.2014 5.27633C11.3064 5.2407 11.3026 5.0907 11.1957 5.0607L9.74824 4.6707C9.59936 4.63033 9.46345 4.55214 9.35371 4.44372C9.24398 4.3353 9.16415 4.20034 9.12199 4.05195L8.55199 1.69883C8.52387 1.58445 8.36074 1.58445 8.33262 1.7007L7.79637 4.04445C7.75585 4.19693 7.67542 4.33585 7.56337 4.44691C7.45132 4.55797 7.31169 4.63716 7.15887 4.67633L5.72074 5.04945C5.61387 5.07758 5.60637 5.22758 5.71137 5.26508L7.22824 5.79008C7.50012 5.88383 7.71012 6.10508 7.79262 6.3807L8.33449 8.55383C8.36262 8.66633 8.52387 8.6682 8.55199 8.55383L9.11262 6.3732C9.15413 6.23712 9.2275 6.11289 9.32663 6.01082C9.42576 5.90876 9.5478 5.8318 9.68262 5.78633L11.2014 5.27633Z" fill="#F4B400" stroke="#F4B400" stroke-miterlimit="10"/>
</svg>
