<svg width="553" height="553" viewBox="0 0 553 553" fill="none" xmlns="http://www.w3.org/2000/svg">
<path d="M276.5 0C123.794 0 0 123.796 0 276.5C0 429.214 123.796 553 276.5 553C429.217 553 553 429.214 553 276.5C553 123.807 429.217 0.0151211 276.496 0.0151211L276.498 0.00216016L276.5 0ZM403.299 398.795C398.346 406.917 387.713 409.492 379.591 404.507C314.672 364.853 232.949 355.871 136.703 377.861C132.246 378.875 127.569 378.078 123.7 375.645C119.831 373.211 117.086 369.341 116.07 364.885C115.563 362.679 115.497 360.394 115.874 358.163C116.252 355.931 117.066 353.795 118.269 351.878C119.473 349.962 121.044 348.301 122.89 346.992C124.737 345.683 126.823 344.751 129.03 344.249C234.36 320.185 324.704 330.545 397.588 375.087C405.71 380.073 408.285 390.673 403.299 398.795ZM437.142 323.507C430.899 333.649 417.627 336.853 407.492 330.612C333.17 284.929 219.876 271.698 131.968 298.382C120.567 301.826 108.526 295.401 105.066 284.02C101.631 272.618 108.06 260.599 119.442 257.134C219.856 226.663 344.692 241.423 430.044 293.872C440.179 300.115 443.383 313.385 437.142 323.507ZM440.048 245.109C350.932 192.176 203.906 187.307 118.824 213.134C105.161 217.277 90.7114 209.563 86.5726 195.9C82.4316 182.231 90.1368 167.792 103.811 163.638C201.478 133.988 363.844 139.719 466.44 200.627C478.758 207.919 482.784 223.792 475.487 236.064C468.225 248.355 452.309 252.406 440.061 245.109H440.048Z" fill="#1ED760"/>
</svg>
