<svg width="24" height="24" viewBox="0 0 24 24" fill="none" xmlns="http://www.w3.org/2000/svg">
<path d="M2 5.25C2 4.38805 2.34241 3.5614 2.9519 2.9519C3.5614 2.34241 4.38805 2 5.25 2H16.75C17.612 2 18.4386 2.34241 19.0481 2.9519C19.6576 3.5614 20 4.38805 20 5.25V8.01C19.4982 7.95783 18.9911 7.99028 18.5 8.106V7H3.5V16.75C3.5 17.716 4.284 18.5 5.25 18.5H13.235L12.794 19.264C12.6617 19.4927 12.5672 19.7412 12.514 20H5.25C4.38805 20 3.5614 19.6576 2.9519 19.0481C2.34241 18.4386 2 17.612 2 16.75V5.25ZM5.25 3.5C4.78587 3.5 4.34075 3.68437 4.01256 4.01256C3.68437 4.34075 3.5 4.78587 3.5 5.25V5.5H18.5V5.25C18.5 4.78587 18.3156 4.34075 17.9874 4.01256C17.6592 3.68437 17.2141 3.5 16.75 3.5H5.25ZM19.857 9C19.1901 8.93744 18.5192 9.0678 17.9243 9.37556C17.3293 9.68333 16.8353 10.1555 16.501 10.736C16.1645 11.3183 16.0028 11.9853 16.0355 12.6571C16.0681 13.3289 16.2936 13.977 16.685 14.524L13.66 19.764C13.4808 20.0981 13.4387 20.4887 13.5426 20.8533C13.6464 21.2179 13.8881 21.5277 14.2164 21.7172C14.5447 21.9067 14.9339 21.961 15.3015 21.8685C15.6691 21.7761 15.9864 21.5442 16.186 21.222L19.216 15.972C19.9092 16.0349 20.6055 15.8898 21.2158 15.555C21.826 15.2203 22.3227 14.7111 22.6421 14.0927C22.9616 13.4743 23.0894 12.7746 23.0092 12.0832C22.929 11.3917 22.6445 10.7399 22.192 10.211L20.542 13.069C20.4666 13.2041 20.3652 13.3229 20.2435 13.4185C20.1218 13.5141 19.9823 13.5845 19.8332 13.6256C19.684 13.6668 19.5282 13.6779 19.3747 13.6582C19.2212 13.6386 19.0732 13.5886 18.9392 13.5113C18.8052 13.4339 18.6879 13.3307 18.5942 13.2075C18.5005 13.0844 18.4322 12.9439 18.3933 12.7942C18.3543 12.6444 18.3456 12.4884 18.3675 12.3353C18.3895 12.1821 18.4416 12.0348 18.521 11.902L20.171 9.044C20.0671 9.02457 19.9623 9.00989 19.857 9ZM10.303 9.243C10.3696 9.31561 10.4213 9.40063 10.455 9.4932C10.4887 9.58578 10.5039 9.68409 10.4996 9.78253C10.4954 9.88097 10.4717 9.9776 10.4301 10.0669C10.3885 10.1562 10.3296 10.2364 10.257 10.303L7.86 12.5L10.257 14.697C10.4037 14.8315 10.4909 15.0187 10.4995 15.2175C10.5082 15.4163 10.4375 15.6103 10.303 15.757C10.1685 15.9037 9.98132 15.9909 9.78253 15.9995C9.58374 16.0082 9.38966 15.9375 9.243 15.803L6.243 13.053C6.16631 12.9827 6.10507 12.8973 6.06318 12.8021C6.02128 12.7069 5.99965 12.604 5.99965 12.5C5.99965 12.396 6.02128 12.2931 6.06318 12.1979C6.10507 12.1027 6.16631 12.0173 6.243 11.947L9.243 9.197C9.31561 9.13039 9.40063 9.07874 9.4932 9.045C9.58578 9.01126 9.68409 8.9961 9.78253 9.00037C9.88097 9.00464 9.9776 9.02827 10.0669 9.0699C10.1562 9.11153 10.2364 9.17035 10.303 9.243ZM13.257 15.803L15.277 13.951C14.9517 13.0087 14.9489 11.9851 15.269 11.041L13.257 9.197C13.1844 9.13042 13.0994 9.0788 13.0068 9.04507C12.9142 9.01135 12.8159 8.99619 12.7175 9.00047C12.619 9.00474 12.5224 9.02836 12.4331 9.06997C12.3438 9.11158 12.2636 9.17038 12.197 9.243C12.1304 9.31562 12.0788 9.40065 12.0451 9.49322C12.0114 9.58579 11.9962 9.6841 12.0005 9.78253C12.0047 9.88096 12.0284 9.97758 12.07 10.0669C12.1116 10.1562 12.1704 10.2364 12.243 10.303L14.64 12.5L12.243 14.697C12.0963 14.8315 12.0091 15.0187 12.0005 15.2175C11.9918 15.4163 12.0625 15.6103 12.197 15.757C12.3315 15.9037 12.5187 15.9909 12.7175 15.9995C12.9163 16.0082 13.1103 15.9375 13.257 15.803Z" fill="#BDBDBD"/>
</svg>
