<svg width="24" height="24" viewBox="0 0 24 24" fill="none" xmlns="http://www.w3.org/2000/svg">
<path d="M3.33341 7.99984V9.53797V11.9998V15.7748C3.33341 17.2683 3.33341 18.015 3.62406 18.5855C3.87973 19.0872 4.28767 19.4952 4.78944 19.7509C5.35987 20.0415 6.10661 20.0415 7.60008 20.0415L16.4001 20.0415C17.8936 20.0415 18.6403 20.0415 19.2107 19.7509C19.7125 19.4952 20.1204 19.0872 20.3761 18.5855C20.6667 18.015 20.6667 17.2683 20.6667 15.7748V7.99984M3.33341 7.99984V7.99984C3.33341 6.71819 3.33341 6.07737 3.54911 5.57419C3.81883 4.94497 4.32022 4.44359 4.94944 4.17387C5.45262 3.95817 6.09344 3.95817 7.37508 3.95817L9.33337 3.95817H12.0001H16.6251C17.9067 3.95817 18.5475 3.95817 19.0507 4.17387C19.6799 4.44359 20.1813 4.94497 20.4511 5.57419C20.6667 6.07737 20.6667 6.71819 20.6667 7.99984V7.99984M3.33341 7.99984L20.6667 7.99984" stroke="#949494" stroke-width="1.06667" stroke-linejoin="round"/>
<path d="M9.41642 10.625L7.504 12.5374C7.23999 12.8014 7.10799 12.9334 7.05853 13.0857C7.01502 13.2196 7.01502 13.3638 7.05853 13.4977C7.10799 13.6499 7.23999 13.7819 7.504 14.0459L9.41642 15.9583" stroke="#949494" stroke-width="1.06667" stroke-linecap="round" stroke-linejoin="round"/>
<path d="M14.5838 15.979L16.4962 14.0666C16.7603 13.8026 16.8923 13.6706 16.9417 13.5183C16.9852 13.3845 16.9852 13.2402 16.9417 13.1063C16.8923 12.9541 16.7603 12.8221 16.4962 12.5581L14.5838 10.6457" stroke="#949494" stroke-width="1.06667" stroke-linecap="round" stroke-linejoin="round"/>
<path d="M12.6671 10.625L11.3337 16" stroke="#949494" stroke-width="1.06667" stroke-linecap="round" stroke-linejoin="round"/>
<path d="M5.3335 6.125H6.66683" stroke="#949494" stroke-width="1.06667" stroke-linecap="round" stroke-linejoin="round"/>
</svg>
