<svg width="28" height="28" viewBox="0 0 28 28" fill="none" xmlns="http://www.w3.org/2000/svg">
<path d="M11.1136 22.3816C11.1136 22.1051 11.0984 21.1869 11.0984 20.2093C8.16772 20.7494 7.40938 19.4953 7.17605 18.8384C7.04422 18.5024 6.47605 17.4676 5.98022 17.1899C5.57188 16.9718 4.98855 16.4316 5.96505 16.4176C6.88438 16.4024 7.54005 17.2634 7.75938 17.6134C8.80938 19.3774 10.4859 18.8816 11.1567 18.5759C11.2594 17.8176 11.5651 17.3078 11.9011 17.0161C9.30522 16.7244 6.59272 15.7176 6.59272 11.2551C6.59272 9.98577 7.04422 8.93694 7.78855 8.11911C7.67188 7.82744 7.26355 6.63161 7.90522 5.02744C7.90522 5.02744 8.88172 4.72177 11.1136 6.22444C12.0633 5.96084 13.0446 5.82817 14.0302 5.83011C15.0219 5.83011 16.0136 5.96077 16.9469 6.22327C19.1787 4.70661 20.1552 5.02861 20.1552 5.02861C20.7969 6.63277 20.3885 7.82861 20.2719 8.12027C21.015 8.93694 21.4677 9.97177 21.4677 11.2551C21.4677 15.7328 18.7412 16.7244 16.1442 17.0161C16.5677 17.3801 16.9329 18.0801 16.9329 19.1744C16.9329 20.7343 16.9177 21.9884 16.9177 22.3828" stroke="#949494" stroke-width="1.2"/>
</svg>
