<svg width="24" height="24" viewBox="0 0 24 24" fill="none" xmlns="http://www.w3.org/2000/svg">
<path d="M4 7.19067V16.427C4 17.9205 4 18.6672 4.29065 19.2376C4.54631 19.7394 4.95426 20.1474 5.45603 20.403C6.02646 20.6937 6.77319 20.6937 8.26667 20.6937H15.7333C17.2268 20.6937 17.9735 20.6937 18.544 20.403C19.0457 20.1474 19.4537 19.7394 19.7094 19.2376C20 18.6672 20 17.9205 20 16.427V7.19067" stroke="#949494" stroke-width="1.06667"/>
<path d="M2.66675 7.99984L9.88322 3.87614C10.6548 3.43524 11.0406 3.21479 11.4503 3.12846C11.8128 3.05208 12.1873 3.05208 12.5499 3.12846C12.9596 3.21479 13.3454 3.43524 14.1169 3.87614L21.3334 7.99984" stroke="#949494" stroke-width="1.06667" stroke-linecap="round"/>
<path d="M9.3335 16C10.6668 17.9013 13.3335 17.934 14.6668 16" stroke="#949494" stroke-width="1.06667" stroke-linecap="round"/>
</svg>
