<svg width="51" height="50" viewBox="0 0 51 50" fill="none" xmlns="http://www.w3.org/2000/svg">
<path fill-rule="evenodd" clip-rule="evenodd" d="M12.2874 15.3944C19.0886 23.8992 24.9069 31.0475 25.2162 31.2782C25.7653 31.6868 34.0997 33.357 35.5936 33.357C36.0063 33.357 37.1871 32.9444 38.2184 32.4408L40.0923 31.5247L34.5059 31.3586C31.4329 31.2677 29.1357 31.1029 29.3991 30.9935C29.6625 30.8841 33.0474 30.1446 36.921 29.3498L43.9647 27.9037L45.3341 25.7512C46.3182 24.2037 46.5371 23.6659 46.1125 23.8399C43.4156 24.9405 29.5799 29.9904 29.4974 29.9047C29.4397 29.8441 33.3776 27.5729 38.2498 24.8562C50.201 18.1929 49.0308 19.0418 49.8629 16.4305C50.2535 15.206 50.5247 14.2028 50.4671 14.2028C50.4094 14.2028 50.5339 13.8654 50.7449 13.4528C50.9559 13.0402 51.0528 12.7028 50.9585 12.7028C50.8025 12.7028 40.513 20.2954 30.0569 28.1265C27.6968 29.8942 25.7076 31.2782 25.6355 31.2044C25.5634 31.1293 26.6826 29.2773 28.1227 27.0878C29.8407 24.4752 30.4304 23.5762 30.4776 23.0213C30.5064 22.6825 30.1985 22.2475 29.9456 21.9523C29.7464 21.7203 29.5092 21.5133 29.3637 21.2444C29.2746 21.0797 29.1658 20.8925 29.0584 20.6961C28.8631 20.3389 28.6875 19.9539 28.3874 19.6877C28.2525 19.5677 28.162 19.5585 28.1227 19.6969C27.9183 20.4021 25.5412 28.6907 25.3394 28.6907C25.2411 28.6907 25.2319 25.8566 25.3184 22.3925L25.477 16.0957L23.6869 14.4572C22.7028 13.5556 21.3569 12.3258 20.6965 11.7221C20.036 11.1197 19.5629 10.831 19.6455 11.0814C19.7281 11.3319 20.8131 15.2086 22.058 19.6969C23.3029 24.1852 24.3945 28.083 24.4849 28.3585C25.0104 29.9535 23.4563 27.0219 18.5421 17.1502L13.0461 6.10804L6.99449 3.2226C3.66335 1.63686 0.710926 0.246208 0.430491 0.134164C0.150057 0.0221213 5.48486 6.88839 12.2874 15.3944ZM16.8687 32.4448C15.9854 32.8534 15.3538 33.3649 15.3577 33.668C15.3643 34.3087 15.9789 35.3895 15.9867 34.7727C15.9894 34.4827 16.6249 34.3561 18.0821 34.3561C19.8735 34.3561 21.0699 34.6962 26.4611 36.7354C31.5928 38.677 33.3252 39.5048 35.874 41.2329C37.592 42.3982 39.0544 43.3512 39.1239 43.3512C39.1933 43.3512 39.116 42.8648 38.9535 42.2703C38.4464 40.4262 38.4359 40.4315 41.7697 41.0642C43.4811 41.3898 45.0956 41.6626 45.355 41.6706C45.6158 41.6785 45.0484 40.9733 44.0944 40.102L43.4248 39.4916C42.9962 39.1015 43.2085 38.3857 43.7799 38.2948C44.5609 38.1709 46.1347 38.0469 47.2748 38.0206C49.1291 37.9771 48.0821 37.6765 37.4439 35.2024C30.8956 33.6786 24.4312 32.3354 23.0788 32.2181C21.7265 32.0994 20.1172 31.9452 19.5027 31.8727C18.8173 31.7923 17.8004 32.0138 16.8687 32.4448Z" fill="url(#paint0_linear_2786_9577)"/>
<defs>
<linearGradient id="paint0_linear_2786_9577" x1="-5.95454" y1="-4.73873" x2="36.7952" y2="43.9076" gradientUnits="userSpaceOnUse">
<stop stop-color="#745EE1"/>
<stop offset="1" stop-color="#AE50FF"/>
</linearGradient>
</defs>
</svg>
